#!OML:ASF F:\VICON\USERDATA\INSTALL\Justin_Nancy\Justin_Nancy.ASF
:FULLY-SPECIFIED
:DEGREES
463
root 0.466833 17.1924 40.8253 2.58376 -0.802742 5.19854
lowerback 5.90975 -1.05804 -5.71365
upperback 0.313476 -1.74068 1.68521
thorax -2.76945 -0.787141 5.10646
lowerneck -17.8553 -2.14296 -9.08516
upperneck 19.3461 -1.47917 4.611
head 9.13575 -0.85912 2.8979
rclavicle -1.70955e-014 6.36111e-015
rhumerus -33.0813 -20.5787 -74.7941
rradius 28.1147
rwrist 11.7811
rhand -15.1469 7.41736
rfingers 7.12502
rthumb 11.0231 -22.2732
lclavicle -1.70955e-014 6.36111e-015
lhumerus -20.8921 9.1593 83.8601
lradius 29.29
lwrist -8.83726
lhand -15.6981 24.1704
lfingers 7.12502
lthumb 10.4914 413.889
rfemur -32.1181 -0.397065 15.1616
rtibia 28.5267
rfoot 1.02923 -11.2657
rtoes -0.316683
lfemur 0.616835 0.664016 -29.3523
ltibia 20.0713
lfoot -17.6985 1.46179
ltoes -0.0773357
464
root 0.450071 17.1902 40.9657 2.75725 -0.73015 5.50808
lowerback 5.75678 -1.12945 -6.15362
upperback 0.293449 -1.85745 1.64905
thorax -2.67691 -0.842988 5.32229
lowerneck -17.9863 -2.00787 -8.88862
upperneck 19.6624 -1.31017 4.48353
head 9.25388 -0.784064 2.84824
rclavicle -1.18277e-014 -2.38542e-015
rhumerus -33.169 -20.7936 -74.6647
rradius 27.7033
rwrist 11.4831
rhand -15.4333 8.60924
rfingers 7.12502
rthumb 10.7468 -21.0959
lclavicle -1.18277e-014 -2.38542e-015
lhumerus -20.6755 8.8853 83.832
lradius 29.4622
lwrist -8.78678
lhand -16.0631 24.092
lfingers 7.12502
lthumb 10.1393 413.828
rfemur -32.0481 -0.0127581 14.6073
rtibia 25.8414
rfoot 1.21525 -11.5931
rtoes 1.42269
lfemur 1.5266 0.811227 -29.5654
ltibia 18.9731
lfoot -17.3599 1.12671
ltoes 0.145905
465
root 0.433731 17.1862 41.118 2.81739 -0.604754 5.85897
lowerback 5.84283 -1.19126 -6.54493
upperback 0.144425 -1.978 1.54608
thorax -2.85485 -0.887824 5.4511
lowerneck -17.9312 -2.00455 -8.72787
upperneck 19.8355 -1.33126 4.36252
head 9.30367 -0.798927 2.77914
rclavicle 2.98177e-015 -1.03368e-014
rhumerus -33.5323 -21.0334 -74.4678
rradius 27.2184
rwrist 11.4036
rhand -15.8873 9.66056
rfingers 7.12502
rthumb 10.3088 -20.0668
lclavicle 2.98177e-015 -1.03368e-014
lhumerus -20.7883 8.66682 83.7204
lradius 29.5972
lwrist -8.80768
lhand -15.3999 24.6096
lfingers 7.12502
lthumb 10.779 414.313
rfemur -31.7552 0.312555 13.968
rtibia 23.2822
rfoot 0.726734 -12.0851
rtoes 2.83591
lfemur 2.59531 0.965827 -29.8144
ltibia 17.8947
lfoot -17.0349 0.670803
ltoes 0.3629
466
root 0.417477 17.181 41.2845 2.79344 -0.396808 5.962
lowerback 5.79265 -1.32087 -6.65306
upperback 0.147961 -2.15588 1.49985
thorax -2.79568 -0.977746 5.47457
lowerneck -18.0548 -1.98365 -8.63313
upperneck 19.9093 -1.31921 4.36443
head 9.34996 -0.786098 2.76706
rclavicle 1.64991e-014 -7.95139e-016
rhumerus -33.7684 -21.3167 -74.385
rradius 26.9434
rwrist 11.5631
rhand -16.043 9.86283
rfingers 7.12502
rthumb 10.1587 -19.8719
lclavicle 1.64991e-014 -7.95139e-016
lhumerus -20.672 8.35148 83.6211
lradius 29.6621
lwrist -8.49193
lhand -14.9024 25.3016
lfingers 7.12502
lthumb 11.2589 414.979
rfemur -31.2487 0.811163 13.5138
rtibia 20.803
rfoot 0.407141 -12.3836
rtoes -0.310364
lfemur 3.72411 1.15499 -29.7666
ltibia 16.9654
lfoot -16.893 0.180562
ltoes 0.356213
467
root 0.399023 17.1794 41.4381 2.85849 -0.192395 6.06176
lowerback 5.42227 -1.44158 -6.83367
upperback 0.402824 -2.29557 1.49696
thorax -2.2955 -1.07251 5.56278
lowerneck -18.3018 -2.0671 -8.71607
upperneck 19.6455 -1.42369 4.53615
head 9.31199 -0.814878 2.82329
rclavicle 1.72943e-014 -1.03368e-014
rhumerus -33.4034 -21.9797 -74.3169
rradius 26.4883
rwrist 11.957
rhand -16.0364 9.44455
rfingers 7.12502
rthumb 10.1651 -20.2899
lclavicle 1.72943e-014 -1.03368e-014
lhumerus -20.0344 8.1483 83.5939
lradius 29.6464
lwrist -8.33263
lhand -14.9166 25.6845
lfingers 7.12502
lthumb 11.2452 415.363
rfemur -30.8242 1.3182 13.0876
rtibia 18.4555
rfoot -0.46118 -12.9497
rtoes -2.01186
lfemur 4.62063 1.23849 -29.7168
ltibia 16.145
lfoot -16.7563 -0.173228
ltoes -1.08463
468
root 0.384143 17.1716 41.5832 2.92463 0.0393725 6.38024
lowerback 5.28656 -1.56068 -7.17614
upperback 0.520279 -2.46195 1.47592
thorax -2.05944 -1.16565 5.73626
lowerneck -18.466 -2.11404 -8.79266
upperneck 19.5735 -1.44206 4.50307
head 9.319 -0.830158 2.82094
rclavicle 3.34952e-014 -5.56597e-015
rhumerus -33.2482 -22.2683 -74.198
rradius 26.2867
rwrist 12.1264
rhand -15.8729 8.6039
rfingers 7.12502
rthumb 10.3228 -21.1228
lclavicle 3.34952e-014 -5.56597e-015
lhumerus -19.5764 8.21624 83.6564
lradius 29.5836
lwrist -8.37813
lhand -15.2855 26.0561
lfingers 7.12502
lthumb 10.8894 415.754
rfemur -30.3206 1.66863 12.4137
rtibia 16.1989
rfoot -1.22764 -13.0694
rtoes -4.94193
lfemur 5.43984 1.04566 -29.9635
ltibia 15.5265
lfoot -16.6332 -0.314701
ltoes -4.21968
469
root 0.366576 17.1568 41.7296 2.99067 0.328303 6.61368
lowerback 5.44497 -1.637 -7.38138
upperback 0.313281 -2.59511 1.44694
thorax -2.33628 -1.21236 5.84207
lowerneck -18.2227 -2.24128 -9.17777
upperneck 19.7159 -1.60501 4.80691
head 9.34253 -0.906138 2.97146
rclavicle -1.51076e-014 -7.95139e-015
rhumerus -33.9403 -22.5533 -73.7532
rradius 26.3234
rwrist 12.3946
rhand -15.7132 8.80868
rfingers 7.12502
rthumb 10.4768 -20.9102
lclavicle -1.51076e-014 -7.95139e-015
lhumerus -19.7719 8.04254 83.686
lradius 29.6931
lwrist -8.45906
lhand -15.3427 26.435
lfingers 7.12502
lthumb 10.8342 416.135
rfemur -29.7711 1.97498 11.856
rtibia 14.0331
rfoot -1.19301 -12.91
rtoes -10.5349
lfemur 6.11147 1.03569 -30.0606
ltibia 15.2081
lfoot -16.6678 -0.451448
ltoes -7.43561
470
root 0.343797 17.1424 41.8748 3.16144 0.523344 6.45568
lowerback 5.51606 -1.6999 -7.25276
upperback -0.0333574 -2.68574 1.50319
thorax -2.72699 -1.23167 5.84674
lowerneck -17.6193 -2.39371 -9.71552
upperneck 19.7166 -1.87009 5.42351
head 9.26397 -1.00875 3.24153
rclavicle 2.26615e-014 -1.43125e-014
rhumerus -34.7886 -22.719 -73.3036
rradius 26.1559
rwrist 12.4668
rhand -15.8452 9.77539
rfingers 7.12502
rthumb 10.3495 -19.9499
lclavicle 2.26615e-014 -1.43125e-014
lhumerus -20.2919 8.05072 83.6015
lradius 29.9468
lwrist -8.98243
lhand -15.197 26.7025
lfingers 7.12502
lthumb 10.9747 416.396
rfemur -29.5117 2.43089 11.7618
rtibia 12.3126
rfoot -2.73547 -13.6963
rtoes -7.6148
lfemur 6.5351 1.13326 -29.7141
ltibia 14.9576
lfoot -16.4471 -0.693023
ltoes -8.72991
471
root 0.319352 17.1371 42.0263 3.22009 0.667827 5.9813
lowerback 5.43367 -1.76319 -6.84291
upperback -0.134063 -2.73654 1.64921
thorax -2.78916 -1.25646 5.77035
lowerneck -16.9092 -2.04066 -9.2896
upperneck 19.35 -1.47749 5.05432
head 8.96834 -0.835257 3.08526
rclavicle 6.36111e-015 6.36111e-015
rhumerus -35.0534 -23.1953 -72.9275
rradius 25.5289
rwrist 12.6111
rhand -16.0749 10.3103
rfingers 7.12502
rthumb 10.1279 -19.426
lclavicle 6.36111e-015 6.36111e-015
lhumerus -20.5155 8.20356 83.512
lradius 30.1215
lwrist -9.50666
lhand -14.9596 26.571
lfingers 7.12502
lthumb 11.2037 416.252
rfemur -29.2168 2.95635 12.0746
rtibia 11.1805
rfoot -3.33763 -14.2541
rtoes -6.78425
lfemur 7.11172 1.11101 -29.0422
ltibia 14.6956
lfoot -16.1074 -1.24761
ltoes -8.45522
472
root 0.305366 17.1244 42.1849 3.06421 0.944952 5.95164
lowerback 5.53172 -1.8352 -6.74791
upperback 0.00889071 -2.82782 1.69983
thorax -2.68339 -1.3115 5.77579
lowerneck -17.4752 -2.26691 -9.31662
upperneck 19.6434 -1.69662 4.89664
head 9.19044 -0.956108 3.01201
rclavicle -5.86415e-015 7.15625e-015
rhumerus -34.8912 -23.4936 -72.7057
rradius 25.0456
rwrist 12.6946
rhand -16.1471 10.4361
rfingers 7.12502
rthumb 10.0582 -19.3035
lclavicle -5.86415e-015 7.15625e-015
lhumerus -20.1362 8.18371 83.6604
lradius 30.0921
lwrist -9.9922
lhand -14.3535 27.6031
lfingers 7.12502
lthumb 11.7882 417.251
rfemur -28.6171 2.52476 12.2581
rtibia 10.51
rfoot -3.56048 -13.7958
rtoes -8.20547
lfemur 7.9459 0.866204 -28.8946
ltibia 14.5807
lfoot -16.0183 -1.68233
ltoes -8.85189
473
root 0.291972 17.1107 42.3419 2.92132 1.06153 5.97751
lowerback 5.0771 -1.89588 -6.73409
upperback 0.560804 -2.86254 1.69103
thorax -1.84962 -1.37868 5.72259
lowerneck -18.165 -2.33143 -9.24821
upperneck 19.5924 -1.71666 4.82068
head 9.29883 -0.960362 2.97097
rclavicle -1.96797e-014 -2.38542e-015
rhumerus -34.2886 -24.0493 -72.8106
rradius 24.9092
rwrist 12.9389
rhand -15.9195 10.6605
rfingers 7.12502
rthumb 10.2778 -19.0684
lclavicle -1.96797e-014 -2.38542e-015
lhumerus -19.0243 8.2474 83.7733
lradius 30.1237
lwrist -11.1226
lhand -12.9019 31.2421
lfingers 7.12502
lthumb 13.1878 420.805
rfemur -28.4277 1.95928 12.4991
rtibia 10.6292
rfoot -2.83016 -12.7574
rtoes -11.9529
lfemur 8.78682 0.643089 -28.8657
ltibia 14.5868
lfoot -16.1545 -1.52287
ltoes -11.601
474
root 0.272236 17.1033 42.4935 2.78746 1.04781 5.67702
lowerback 5.29852 -1.90969 -6.43874
upperback 0.477418 -2.8795 1.74455
thorax -2.06963 -1.37826 5.62525
lowerneck -17.854 -2.19604 -9.13526
upperneck 19.5783 -1.58571 4.79378
head 9.22537 -0.896787 2.95979
rclavicle 6.55989e-015 1.03368e-014
rhumerus -34.888 -24.3549 -72.507
rradius 24.862
rwrist 13.1808
rhand -15.7494 11.035
rfingers 7.12502
rthumb 10.4419 -18.6857
lclavicle 6.55989e-015 1.03368e-014
lhumerus -19.3184 7.95099 83.7034
lradius 30.9367
lwrist -12.2498
lhand -10.3748 37.9712
lfingers 7.12502
lthumb 15.6227 427.36
rfemur -28.4855 1.8228 13.0318
rtibia 11.3602
rfoot -1.70436 -11.6362
rtoes -16.3309
lfemur 9.54049 0.431988 -28.4724
ltibia 14.5589
lfoot -15.9759 -1.37372
ltoes -13.8046
475
root 0.251442 17.0878 42.6375 2.68179 1.01753 5.71916
lowerback 5.68576 -1.87426 -6.51823
upperback 0.325714 -2.86585 1.74734
thorax -2.44255 -1.35168 5.69563
lowerneck -17.738 -2.21435 -9.15576
upperneck 19.6135 -1.63246 4.85744
head 9.22054 -0.914968 2.97979
rclavicle 3.10104e-014 2.62396e-014
rhumerus -35.4013 -24.7209 -72.0655
rradius 24.571
rwrist 13.5774
rhand -15.6672 11.3831
rfingers 7.12502
rthumb 10.5212 -18.3336
lclavicle 3.10104e-014 2.62396e-014
lhumerus -19.5825 8.07883 83.6028
lradius 30.2066
lwrist -10.2951
lhand -13.4226 29.5863
lfingers 7.12502
lthumb 12.6858 419.181
rfemur -28.4482 1.26548 13.4456
rtibia 12.2966
rfoot -1.35262 -10.3016
rtoes -17.8971
lfemur 10.0483 0.153707 -28.46
ltibia 14.7318
lfoot -15.7524 -1.37402
ltoes -14.2586
